<?xml version="1.0" encoding="UTF-8" standalone="no"?> <!-- Created with Vectornator for iOS (http://vectornator.io/) --><!DOCTYPE svg PUBLIC "-//W3C//DTD SVG 1.1//EN" "http://www.w3.org/Graphics/SVG/1.1/DTD/svg11.dtd">
<svg height="100%" style="fill-rule:nonzero;clip-rule:evenodd;stroke-linecap:round;stroke-linejoin:round;" xmlns:xlink="http://www.w3.org/1999/xlink" xmlns="http://www.w3.org/2000/svg" xml:space="preserve" width="100%" xmlns:vectornator="http://vectornator.io" version="1.1" viewBox="0 0 1024 1024">
<metadata>
<vectornator:setting key="DimensionsVisible" value="1"/>
<vectornator:setting key="PencilOnly" value="0"/>
<vectornator:setting key="SnapToPoints" value="0"/>
<vectornator:setting key="GuidesVisible" value="1"/>
<vectornator:setting key="RulersVisible" value="1"/>
<vectornator:setting key="OutlineMode" value="0"/>
<vectornator:setting key="CMYKEnabledKey" value="0"/>
<vectornator:setting key="SnapToEdges" value="0"/>
<vectornator:setting key="DisplayWhiteBackground" value="1"/>
<vectornator:setting key="doHistoryDisabled" value="0"/>
<vectornator:setting key="TimeLapseWatermarkDisabled" value="0"/>
<vectornator:setting key="SnapToGuides" value="0"/>
<vectornator:setting key="DynamicGuides" value="0"/>
<vectornator:setting key="IsolateActiveLayer" value="0"/>
<vectornator:setting key="Units" value="Points"/>
<vectornator:setting key="SnapToGrid" value="0"/>
</metadata>
<defs/>
<g id="レイヤー 1 コピー" vectornator:layerName="レイヤー 1 コピー">
<g opacity="1">
<path d="M116.938+384L116.938+174.437L118.587+174.437L242.231+384L288.026+384L288.026+64L235.087+64L235.087+272.455L233.622+272.455L110.161+64L64+64L64+384L116.938+384Z" opacity="1" fill="#8f4c01"/>
<path d="M317.849+64L317.849+384L373.169+384L373.169+283.099L425.374+283.099C481.06+283.099+519.71+239.191+519.71+173.55C519.71+107.687+482.342+64+428.122+64L317.849+64ZM373.169+117.001L413.468+117.001C445.157+117.001+463.475+137.403+463.475+173.771C463.475+210.362+444.974+230.764+413.285+230.764L373.169+230.764L373.169+117.001Z" opacity="1" fill="#8f4c01"/>
<path d="M686.551+384L745.351+384L653.396+64L588.368+64L496.596+384L553.381+384L573.53+306.384L666.401+306.384L686.551+384ZM619.325+125.206L620.607+125.206L654.495+256.266L585.437+256.266L619.325+125.206Z" opacity="1" fill="#8f4c01"/>
<path d="M758.139+64L758.139+384L813.458+384L813.458+283.099L865.664+283.099C921.35+283.099+960+239.191+960+173.55C960+107.687+922.632+64+868.411+64L758.139+64ZM813.458+117.001L853.757+117.001C885.447+117.001+903.765+137.403+903.765+173.771C903.765+210.362+885.264+230.764+853.574+230.764L813.458+230.764L813.458+117.001Z" opacity="1" fill="#8f4c01"/>
</g>
<g opacity="1">
<path d="M80.2572+532.939L80.2572+479.549L80.7594+479.549L118.42+532.939L132.368+532.939L132.368+451.413L116.244+451.413L116.244+504.521L115.797+504.521L78.1929+451.413L64.133+451.413L64.133+532.939L80.2572+532.939Z" opacity="1" fill="#8f4c01"/>
<path d="M172.634+534.012C191.269+534.012+202.929+521.978+202.929+501.809C202.929+481.865+191.157+469.662+172.634+469.662C154.166+469.662+142.338+481.922+142.338+501.809C142.338+521.922+153.999+534.012+172.634+534.012ZM172.634+521.3C164.042+521.3+158.853+514.182+158.853+501.809C158.853+489.605+164.042+482.317+172.634+482.317C181.17+482.317+186.359+489.549+186.359+501.809C186.359+514.182+181.226+521.3+172.634+521.3Z" opacity="1" fill="#8f4c01"/>
<path d="M64.133+592.961L64.133+674.487L80.9825+674.487L80.9825+648.781L96.8836+648.781C113.845+648.781+125.617+637.594+125.617+620.871C125.617+604.091+114.235+592.961+97.7205+592.961L64.133+592.961ZM80.9825+606.464L93.257+606.464C102.909+606.464+108.489+611.662+108.489+620.928C108.489+630.25+102.853+635.448+93.2013+635.448L80.9825+635.448L80.9825+606.464Z" opacity="1" fill="#8f4c01"/>
<path d="M153.999+663.188C148.085+663.188+144.235+660.306+144.235+655.73C144.235+651.154+147.861+648.442+154.668+647.99L167.556+647.086L167.556+651.662C167.556+658.442+161.531+663.188+153.999+663.188ZM148.698+675.222C156.565+675.222+164.153+671.38+167.501+664.883L167.835+664.883L167.835+674.487L183.569+674.487L183.569+631.832C183.569+619.402+173.247+611.21+157.458+611.21C142.115+611.21+131.514+619.402+131.068+631.267L145.965+631.267C146.746+626.747+150.874+623.583+156.788+623.583C163.484+623.583+167.556+626.86+167.556+632.849L167.556+636.973L152.213+637.933C136.535+638.894+127.999+645.278+127.999+656.578C127.999+667.708+136.87+675.222+148.698+675.222Z" opacity="1" fill="#8f4c01"/>
<path d="M193.483+630.589C193.483+639.685+199.453+645.73+211.002+648.385L222.328+650.984C227.908+652.34+230.028+654.035+230.028+657.256C230.028+661.323+226.066+663.866+219.594+663.866C212.843+663.866+208.659+660.928+207.878+655.674L191.977+655.674C192.814+667.651+202.968+675.561+219.148+675.561C235.217+675.561+246.208+667.595+246.208+655.504C246.208+646.239+241.298+641.436+228.968+638.611L217.419+636.069C211.895+634.77+209.217+632.679+209.217+629.572C209.217+625.56+213.122+622.905+218.981+622.905C225.23+622.905+229.302+626.012+229.637+630.928L244.701+630.928C244.478+619.063+234.38+611.21+219.204+611.21C203.638+611.21+193.483+618.894+193.483+630.589Z" opacity="1" fill="#8f4c01"/>
<path d="M253.667+630.589C253.667+639.685+259.637+645.73+271.186+648.385L282.512+650.984C288.091+652.34+290.212+654.035+290.212+657.256C290.212+661.323+286.25+663.866+279.778+663.866C273.027+663.866+268.843+660.928+268.062+655.674L252.161+655.674C252.997+667.651+263.152+675.561+279.332+675.561C295.4+675.561+306.392+667.595+306.392+655.504C306.392+646.239+301.482+641.436+289.151+638.611L277.602+636.069C272.079+634.77+269.401+632.679+269.401+629.572C269.401+625.56+273.306+622.905+279.165+622.905C285.413+622.905+289.486+626.012+289.821+630.928L304.885+630.928C304.662+619.063+294.563+611.21+279.388+611.21C263.821+611.21+253.667+618.894+253.667+630.589Z" opacity="1" fill="#8f4c01"/>
<path d="M400.274+612.284L384.206+612.284L374.665+658.725L374.331+658.725L363.172+612.284L347.55+612.284L336.447+658.725L336.112+658.725L326.627+612.284L310.224+612.284L326.627+674.487L343.756+674.487L354.97+630.193L355.305+630.193L366.631+674.487L383.927+674.487L400.274+612.284Z" opacity="1" fill="#8f4c01"/>
<path d="M434.124+675.561C452.759+675.561+464.42+663.527+464.42+643.357C464.42+623.414+452.647+611.21+434.124+611.21C415.656+611.21+403.828+623.47+403.828+643.357C403.828+663.47+415.489+675.561+434.124+675.561ZM434.124+662.849C425.532+662.849+420.343+655.73+420.343+643.357C420.343+631.154+425.532+623.866+434.124+623.866C442.66+623.866+447.849+631.097+447.849+643.357C447.849+655.73+442.716+662.849+434.124+662.849Z" opacity="1" fill="#8f4c01"/>
<path d="M473.162+674.487L489.454+674.487L489.454+639.685C489.454+630.984+494.308+625.786+502.565+625.786C504.964+625.786+507.196+626.182+508.591+626.747L508.591+612.171C507.419+611.775+505.745+611.549+503.848+611.549C496.595+611.549+491.295+615.73+489.23+623.414L488.896+623.414L488.896+612.284L473.162+612.284L473.162+674.487Z" opacity="1" fill="#8f4c01"/>
<path d="M536.47+675.222C545.509+675.222+552.594+670.702+555.607+663.866L555.886+663.866L555.886+674.487L571.955+674.487L571.955+589.063L555.663+589.063L555.663+622.905L555.328+622.905C552.26+616.012+545.397+611.549+536.526+611.549C521.239+611.549+511.307+623.809+511.307+643.301C511.307+662.905+521.183+675.222+536.47+675.222ZM541.882+624.882C550.307+624.882+555.775+632.171+555.775+643.414C555.775+654.657+550.307+661.888+541.882+661.888C533.402+661.888+527.99+654.77+527.99+643.357C527.99+632.058+533.402+624.882+541.882+624.882Z" opacity="1" fill="#8f4c01"/>
<path d="M116.858+816.036L134.767+816.036L106.759+734.51L86.9524+734.51L59+816.036L76.2959+816.036L82.4332+796.262L110.72+796.262L116.858+816.036ZM96.3815+750.103L96.772+750.103L107.094+783.493L86.0597+783.493L96.3815+750.103Z" opacity="1" fill="#8f4c01"/>
<path d="M142.282+816.036L158.574+816.036L158.574+730.612L142.282+730.612L142.282+816.036Z" opacity="1" fill="#8f4c01"/>
<path d="M170.496+816.036L186.788+816.036L186.788+730.612L170.496+730.612L170.496+816.036Z" opacity="1" fill="#8f4c01"/>
<path d="M64.133+876.058L64.133+957.584L80.9825+957.584L80.9825+931.878L96.8836+931.878C113.845+931.878+125.617+920.691+125.617+903.968C125.617+887.188+114.235+876.058+97.7205+876.058L64.133+876.058ZM80.9825+889.561L93.257+889.561C102.909+889.561+108.489+894.759+108.489+904.025C108.489+913.347+102.853+918.545+93.2013+918.545L80.9825+918.545L80.9825+889.561Z" opacity="1" fill="#8f4c01"/>
<path d="M134.415+957.584L150.707+957.584L150.707+922.782C150.707+914.081+155.561+908.883+163.818+908.883C166.217+908.883+168.449+909.279+169.844+909.844L169.844+895.268C168.672+894.872+166.999+894.646+165.102+894.646C157.848+894.646+152.548+898.827+150.484+906.511L150.149+906.511L150.149+895.381L134.415+895.381L134.415+957.584Z" opacity="1" fill="#8f4c01"/>
<path d="M202.857+958.658C221.491+958.658+233.152+946.624+233.152+926.454C233.152+906.511+221.38+894.307+202.857+894.307C184.389+894.307+172.561+906.567+172.561+926.454C172.561+946.567+184.222+958.658+202.857+958.658ZM202.857+945.946C194.264+945.946+189.076+938.827+189.076+926.454C189.076+914.251+194.264+906.963+202.857+906.963C211.393+906.963+216.582+914.194+216.582+926.454C216.582+938.827+211.449+945.946+202.857+945.946Z" opacity="1" fill="#8f4c01"/>
<path d="M246.247+881.539L246.247+895.381L237.933+895.381L237.933+907.866L246.247+907.866L246.247+940.805C246.247+952.952+251.826+957.81+266.053+957.81C269.345+957.81+272.246+957.471+273.92+957.132L273.92+944.929C272.916+945.098+271.298+945.211+269.847+945.211C264.881+945.211+262.538+942.895+262.538+938.093L262.538+907.866L273.92+907.866L273.92+895.381L262.538+895.381L262.538+881.539L246.247+881.539Z" opacity="1" fill="#8f4c01"/>
<path d="M309.834+906.624C317.366+906.624+322.61+911.934+322.889+920.07L296.388+920.07C296.945+912.104+302.413+906.624+309.834+906.624ZM323.112+938.601C321.55+943.403+316.696+946.341+310.559+946.341C301.967+946.341+296.22+940.296+296.22+931.313L296.22+930.296L338.623+930.296L338.623+925.211C338.623+906.285+327.353+894.307+309.666+894.307C291.645+894.307+280.152+906.963+280.152+926.737C280.152+946.511+291.589+958.658+310.28+958.658C325.233+958.658+336.335+950.635+338.121+938.601L323.112+938.601Z" opacity="1" fill="#8f4c01"/>
<path d="M402.935+918.319C402.154+904.477+391.609+894.307+375.095+894.307C356.85+894.307+345.134+906.737+345.134+926.454C345.134+946.454+356.85+958.658+375.206+958.658C391.33+958.658+402.043+949.449+402.991+934.985L387.815+934.985C386.755+941.822+382.236+945.607+375.374+945.607C366.949+945.607+361.648+938.601+361.648+926.454C361.648+914.533+366.949+907.302+375.318+907.302C382.404+907.302+386.867+911.878+387.76+918.319L402.935+918.319Z" opacity="1" fill="#8f4c01"/>
<path d="M415.528+881.539L415.528+895.381L407.214+895.381L407.214+907.866L415.528+907.866L415.528+940.805C415.528+952.952+421.107+957.81+435.334+957.81C438.626+957.81+441.527+957.471+443.201+957.132L443.201+944.929C442.197+945.098+440.579+945.211+439.128+945.211C434.163+945.211+431.819+942.895+431.819+938.093L431.819+907.866L443.201+907.866L443.201+895.381L431.819+895.381L431.819+881.539L415.528+881.539Z" opacity="1" fill="#8f4c01"/>
<path d="M479.115+906.624C486.647+906.624+491.891+911.934+492.17+920.07L465.669+920.07C466.227+912.104+471.694+906.624+479.115+906.624ZM492.394+938.601C490.831+943.403+485.977+946.341+479.84+946.341C471.248+946.341+465.501+940.296+465.501+931.313L465.501+930.296L507.904+930.296L507.904+925.211C507.904+906.285+496.634+894.307+478.947+894.307C460.926+894.307+449.433+906.963+449.433+926.737C449.433+946.511+460.87+958.658+479.561+958.658C494.514+958.658+505.617+950.635+507.402+938.601L492.394+938.601Z" opacity="1" fill="#8f4c01"/>
<path d="M539.577+958.319C548.616+958.319+555.702+953.799+558.715+946.963L558.994+946.963L558.994+957.584L575.062+957.584L575.062+872.16L558.77+872.16L558.77+906.002L558.436+906.002C555.367+899.109+548.504+894.646+539.633+894.646C524.346+894.646+514.415+906.906+514.415+926.398C514.415+946.002+524.29+958.319+539.577+958.319ZM544.989+907.979C553.414+907.979+558.882+915.268+558.882+926.511C558.882+937.754+553.414+944.985+544.989+944.985C536.509+944.985+531.097+937.867+531.097+926.454C531.097+915.155+536.509+907.979+544.989+907.979Z" opacity="1" fill="#8f4c01"/>
</g>
<g opacity="1">
<path d="M816.634+954.221C811.528+957.782+805.904+959.7+799.761+959.973C793.618+960.247+788.153+958.398+783.366+954.426L709.409+890.943C704.782+886.834+702.508+882.041+702.588+876.562C702.668+871.083+705.021+866.358+709.648+862.386L746.746+830.747L692.655+784.522C688.028+780.55+685.754+775.825+685.834+770.346C685.914+764.867+688.267+760.074+692.895+755.965L742.917+712.821C710.047+699.261+684.677+681.388+666.806+659.199C648.935+637.011+640+612.289+640+585.033C640+566.132+644.149+548.395+652.446+531.822C660.743+515.25+672.191+500.663+686.791+488.062C701.391+475.461+718.384+465.634+737.771+458.581C757.158+451.527+777.861+448+799.88+448C822.219+448+843.042+451.527+862.349+458.581C881.655+465.634+898.649+475.427+913.328+487.959C928.008+500.492+939.456+515.044+947.674+531.617C955.891+548.19+960+565.995+960+585.033C960+603.386+956.131+620.747+948.392+637.114C940.653+653.481+929.683+668.034+915.482+680.771C901.281+693.509+884.448+703.576+864.981+710.972L864.981+904.914C864.981+908.338+864.303+911.865+862.947+915.494C861.591+919.124+859.157+922.24+855.647+924.842L816.634+954.221ZM799.88+921.76L826.447+899.161L826.447+687.14C845.116+683.579+861.631+676.868+875.991+667.006C890.352+657.145+901.561+645.16+909.619+631.053C917.676+616.946+921.705+601.606+921.705+585.033C921.705+570.652+918.554+557.195+912.251+544.663C905.949+532.13+897.253+521.105+886.163+511.586C875.074+502.067+862.149+494.602+847.39+489.192C832.63+483.782+816.794+481.077+799.88+481.077C777.542+481.077+757.158+485.734+738.729+495.047C720.299+504.361+705.659+516.893+694.809+532.644C683.959+548.395+678.534+565.858+678.534+585.033C678.534+601.332+682.643+616.569+690.86+630.745C699.078+644.921+710.646+657.076+725.565+667.212C740.484+677.347+757.916+684.469+777.861+688.578L777.861+730.078L730.95+770.552L781.69+813.49L781.69+847.594L747.704+876.357L799.88+921.76Z" opacity="1" fill="#8f4c01"/>
<path d="M828.812+511.062C808.079+511.062+789.959+518.582+775.312+533.281C760.676+547.97+753.219+566.104+753.219+586.875C753.219+607.856+760.666+626.114+775.312+640.812C789.959+655.511+808.079+663.062+828.812+663.062C849.755+663.062+867.968+655.522+882.625+640.812C897.272+626.113+904.75+607.856+904.75+586.875C904.75+565.875+897.275+547.657+882.594+533.062C867.937+518.492+849.725+511.063+828.812+511.062ZM828.812+540.75C841.919+540.75+852.588+545.11+861.656+554.125C870.7+563.115+875.062+573.734+875.062+586.875C875.062+600.035+870.672+610.765+861.594+619.875C852.526+628.975+841.89+633.375+828.812+633.375C815.973+633.375+805.422+628.985+796.344+619.875C790.601+614.112+786.963+607.608+784.906+600.344C789.935+604.074+795.924+606.312+802.375+606.312C820.081+606.312+834.438+589.988+834.438+569.844C834.437+558.247+829.571+548.024+822.156+541.344C824.329+541.056+826.495+540.75+828.812+540.75Z" opacity="1" fill="#8f4c01"/>
</g>
</g>
</svg> 
